Coordinates
version=1
nRows=13
nColumns=40
inDegrees=yes

Units are S.I. units (second, meters, Newtons, ...)
Angles are in degrees.

endheader
time	pelvis_tilt	pelvis_list	pelvis_rotation	pelvis_tx	pelvis_ty	pelvis_tz	hip_flexion_r	hip_adduction_r	hip_rotation_r	knee_angle_r	knee_angle_r_beta	ankle_angle_r	subtalar_angle_r	mtp_angle_r	hip_flexion_l	hip_adduction_l	hip_rotation_l	knee_angle_l	knee_angle_l_beta	ankle_angle_l	subtalar_angle_l	mtp_angle_l	lumbar_extension	lumbar_bending	lumbar_rotation	arm_flex_r	arm_add_r	arm_rot_r	elbow_flex_r	pro_sup_r	wrist_flex_r	wrist_dev_r	arm_flex_l	arm_add_l	arm_rot_l	elbow_flex_l	pro_sup_l	wrist_flex_l	wrist_dev_l
     10.76750000	     -3.74951750	     -4.46499372	     -1.39817672	      1.00904159	      0.92471850	      0.45219027	     19.93101888	      2.99544468	    -14.47258594	     19.69319959	     19.69319959	      6.66669779	     -1.13531153	     -1.50696958	      7.99208487	    -10.88210948	     -5.79729614	     45.82685391	     45.82685391	      7.90249422	    -15.56976472	    -10.95686796	     -7.76349251	      5.69676265	      2.48361524	     -3.31140411	    -12.48128054	    -10.24108081	     28.40777520	     46.91468995	      0.00000000	      0.00000000	      5.18003586	    -10.15237917	    -10.24756632	     76.91016369	     47.55473138	      0.00000000	      0.00000000
     10.78028571	     -3.71997563	     -4.49697662	     -1.03725289	      1.00853672	      0.92560580	      0.45452007	     19.11486724	      3.07645075	    -15.18323593	     19.22253713	     19.22253713	      7.00055544	     -0.31643806	     -1.95613468	     10.43678584	    -11.20381763	     -4.68830210	     50.22801385	     50.22801385	      8.02269019	    -15.87850380	     -5.24681821	     -7.77931583	      5.80889160	      3.13136311	     -2.88207128	    -13.03978508	     -8.16197547	     31.49694901	     46.57096870	      0.00000000	      0.00000000	      6.14713150	     -9.92995011	     -8.33887944	     72.01251134	     47.38959755	      0.00000000	      0.00000000
     10.79307143	     -3.73228381	     -4.60171573	     -0.65231942	      1.00779174	      0.92632802	      0.45679861	     18.33740059	      3.26391910	    -15.85035311	     18.69351376	     18.69351376	      7.27284413	      0.39600167	     -2.32213631	     12.89718264	    -11.57357488	     -3.64918767	     54.15504969	     54.15504969	      7.61102812	    -16.44535343	     -1.25887228	     -7.80580976	      5.94171410	      3.26503820	     -1.50771827	    -13.37620081	     -7.10165038	     33.09419084	     46.40360268	      0.00000000	      0.00000000	      6.40205260	     -9.59344589	     -7.47790239	     68.31490025	     47.30038022	      0.00000000	      0.00000000
     10.80585714	     -3.69860314	     -4.71996769	     -0.24688398	      1.00685518	      0.92700698	      0.45895332	     17.54916156	      3.46417297	    -16.51528452	     18.21490245	     18.21490245	      7.55858459	      1.08338897	     -2.61428286	     15.23640041	    -11.91202891	     -2.69463249	     57.54269955	     57.54269955	      6.90750395	    -17.15721341	      1.25095950	     -7.91593519	      6.08190206	      3.01586852	      0.40675574	    -13.56879613	     -6.69257263	     34.35675707	     46.32579358	      0.00000000	      0.00000000	      6.31739467	     -9.42976509	     -6.82568950	     64.86085285	     47.20840664	      0.00000000	      0.00000000
     10.81864286	     -3.77868427	     -4.83891023	      0.14326555	      1.00570399	      0.92752875	      0.46106316	     16.82823496	      3.73792139	    -16.98324729	     17.56572481	     17.56572481	      7.77136438	      1.52982469	     -2.80072528	     17.68077660	    -12.22554120	     -1.85029863	     60.50880606	     60.50880606	      6.63746484	    -17.64017201	      3.78517669	     -7.88911639	      6.21376053	      2.91662489	      2.25195460	    -13.75338070	     -6.30745156	     35.65975160	     46.25210408	      0.00000000	      0.00000000	      6.24595533	     -9.20328189	     -6.11069844	     61.42419473	     47.10895055	      0.00000000	      0.00000000
     10.83142857	     -3.80975230	     -4.95734700	      0.51471740	      1.00436238	      0.92803764	      0.46297648	     16.15370307	      3.98265329	    -17.43413898	     17.08324924	     17.08324924	      7.94069086	      1.92443815	     -3.18580102	     20.10088859	    -12.42638029	     -0.99248921	     63.14673066	     63.14673066	      7.38063480	    -17.84019843	      8.07660904	     -7.93943246	      6.35835921	      3.67522230	      3.49288599	    -14.35095301	     -5.49925487	     37.12183709	     46.13491219	      0.00000000	      0.00000000	      7.09954230	     -8.55649299	     -5.06956445	     56.66119246	     46.97238926	      0.00000000	      0.00000000
     10.84421429	     -3.82661214	     -5.05658457	      0.86765805	      1.00293150	      0.92862033	      0.46486744	     15.43468841	      4.25427689	    -17.75916361	     16.51278321	     16.51278321	      8.07919844	      2.16565933	     -3.38944576	     22.34116535	    -12.63197812	     -0.34853947	     65.08629936	     65.08629936	      7.78150875	    -18.11246550	     10.37242287	     -8.03423144	      6.46791178	      3.88913598	      5.15938355	    -14.74908317	     -5.02354537	     38.77598569	     46.03520832	      0.00000000	      0.00000000	      7.18082441	     -8.23691597	     -4.24115488	     52.97195316	     46.85944804	      0.00000000	      0.00000000
     10.85700000	     -3.84787840	     -5.14242147	      1.21390358	      1.00139977	      0.92925472	      0.46672048	     14.70170390	      4.53927716	    -17.99858305	     15.88101864	     15.88101864	      8.23158697	      2.37655666	     -3.36992673	     24.42088274	    -12.82885620	      0.14330770	     66.32308852	     66.32308852	      7.78158084	    -18.41219459	     10.79979203	     -8.14596742	      6.52206428	      3.59341008	      7.37700395	    -14.80200978	     -4.99425682	     40.01612550	     45.99613472	      0.00000000	      0.00000000	      6.40041665	     -8.16738535	     -3.87182537	     50.80301452	     46.79474712	      0.00000000	      0.00000000
     10.86978571	     -3.79073116	     -5.12606939	      1.49412368	      0.99985470	      0.93011114	      0.46838339	     13.89613926	      4.71402610	    -18.18788519	     15.28348693	     15.28348693	      8.37701928	      2.61117257	     -3.51925293	     26.26444893	    -12.84538803	      0.49049412	     66.99861375	     66.99861375	      8.42134547	    -18.56641975	     12.41322721	     -8.31888602	      6.51752338	      3.88846306	      9.35369085	    -15.20593720	     -4.42458174	     41.15438559	     45.92483597	      0.00000000	      0.00000000	      6.76972585	     -7.70605126	     -3.40129948	     46.10345797	     46.70286636	      0.00000000	      0.00000000
     10.88257143	     -3.87910963	     -5.16786537	      1.75631519	      0.99814875	      0.93069355	      0.47001345	     13.28223387	      4.95232588	    -18.31811958	     14.70928074	     14.70928074	      8.52331303	      2.76984977	     -3.47691174	     28.13724384	    -12.91341533	      0.75539774	     67.07256833	     67.07256833	      8.68872165	    -18.71799461	     12.56537660	     -8.38711992	      6.53468777	      3.94286673	     11.45625368	    -15.40372737	     -4.47616615	     42.30055894	     45.89537056	      0.00000000	      0.00000000	      5.83427598	     -7.51443303	     -3.18543215	     44.54903713	     46.65552736	      0.00000000	      0.00000000
     10.89535714	     -3.84562611	     -5.08047158	      2.00469641	      0.99652898	      0.93157091	      0.47141361	     12.46143927	      5.06387973	    -18.43584732	     14.01293827	     14.01293827	      8.59936541	      3.05072115	     -3.58689092	     29.67397792	    -12.77026355	      0.89369095	     66.55650205	     66.55650205	      9.40645202	    -18.74781282	     13.85381071	     -8.48595298	      6.46092097	      4.22704597	     13.34355341	    -15.81517407	     -3.74428961	     43.76613782	     45.80475068	      0.00000000	      0.00000000	      6.37560752	     -7.05379362	     -2.94891270	     39.14945259	     46.58499936	      0.00000000	      0.00000000
     10.90814286	     -3.83955569	     -5.01975898	      2.22440869	      0.99488945	      0.93232862	      0.47277705	     11.70260505	      5.20732618	    -18.48797436	     13.37252757	     13.37252757	      8.72662809	      3.24228836	     -3.51714266	     31.01800559	    -12.66025016	      0.90935025	     65.41171849	     65.41171849	      9.73633391	    -18.77461453	     14.01253782	     -8.64195961	      6.39819496	      4.05159117	     15.57339807	    -15.81356441	     -3.79741757	     45.24543119	     45.76278221	      0.00000000	      0.00000000	      5.33205341	     -7.01236294	     -2.84858834	     37.43314581	     46.54485873	      0.00000000	      0.00000000
     10.92092857	     -3.84322077	     -4.91765152	      2.40300741	      0.99323550	      0.93304173	      0.47402032	     10.96571707	      5.29510851	    -18.52283768	     12.75353908	     12.75353908	      8.85296016	      3.47621958	     -3.46997170	     32.14122136	    -12.48587977	      0.80113863	     63.69875355	     63.69875355	     10.01479501	    -18.77264291	     14.21788995	     -8.78250114	      6.28625830	      3.97893771	     17.75075942	    -15.83420300	     -3.76970216	     46.65476739	     45.71997864	      0.00000000	      0.00000000	      4.39391898	     -6.94401820	     -2.74231616	     35.52541614	     46.50616841	      0.00000000	      0.00000000
